#!OML:ASF E:\motion texture\Top Level 1\Subject 1\Session 1\male.ASF
:FULLY-SPECIFIED
:DEGREES
613
root -36.6212 17.7209 4.00841 146.508 -80.6214 -144.956
lowerback -0.716338 1.34344 8.00668
upperback -3.81926 1.83186 3.28216
thorax -3.41895 0.65252 -1.11097
lowerneck -17.1688 0.50579 -2.35469
upperneck 22.5436 0.414994 2.9077
head 9.99572 0.243636 1.45794
rclavicle 2.56432e-014 2.3059e-014
rhumerus 45.9437 -33.5067 -58.0067
rradius 89.323
rwrist -0.623888
rhand -20.6008 -49.6896
rfingers 7.12502
rthumb 5.75978 -439.591
lclavicle 2.56432e-014 2.3059e-014
lhumerus -15.8938 7.62544 56.0841
lradius 42.2003
lwrist -13.4598
lhand -12.8496 29.282
lfingers 7.12502
lthumb 13.2382 58.8416
rfemur -7.73819 -3.88651 23.5079
rtibia 55.1687
rfoot 6.02088 -17.3745
rtoes 2.84927
lfemur -19.7954 -4.30252 -13.0669
ltibia 23.1109
lfoot -3.46824 -1.78202
ltoes -3.22435
614
root -36.7743 17.7345 4.00414 145.981 -80.9562 -144.6
lowerback -0.767954 1.36803 7.78488
upperback -3.80579 1.85921 3.14291
thorax -3.37379 0.675768 -1.13239
lowerneck -17.2142 0.393988 -2.42214
upperneck 22.6853 0.231977 3.06008
head 10.0602 0.169432 1.50025
rclavicle -1.69961e-014 -3.89618e-014
rhumerus 45.2766 -32.418 -57.1597
rradius 88.809
rwrist -0.762232
rhand -19.3199 -48.7426
rfingers 7.12502
rthumb 6.99636 -438.607
lclavicle -1.69961e-014 -3.89618e-014
lhumerus -15.9125 7.10999 56.6735
lradius 42.2905
lwrist -13.3542
lhand -12.7645 28.9731
lfingers 7.12502
lthumb 13.3202 58.5274
rfemur -8.50536 -4.17651 23.3037
rtibia 55.9044
rfoot 6.2783 -17.5438
rtoes 3.64106
lfemur -19.0577 -4.55519 -13.4505
ltibia 23.0365
lfoot -3.60287 -2.00804
ltoes -2.71501
615
root -36.9255 17.7488 3.99954 145.373 -81.2986 -144.145
lowerback -0.819451 1.38575 7.56007
upperback -3.79018 1.87738 3.00896
thorax -3.32754 0.694464 -1.14624
lowerneck -17.2573 0.284356 -2.49504
upperneck 22.8053 0.0532136 3.21593
head 10.1169 0.0976346 1.54502
rclavicle 8.64713e-015 1.35174e-014
rhumerus 44.5586 -31.36 -56.3112
rradius 88.2964
rwrist -0.900881
rhand -18.0739 -47.7719
rfingers 7.12502
rthumb 8.19897 -437.593
lclavicle 8.64713e-015 1.35174e-014
lhumerus -15.977 6.57371 57.2912
lradius 42.3803
lwrist -13.2609
lhand -12.6823 28.6677
lfingers 7.12502
lthumb 13.3995 58.2168
rfemur -9.30022 -4.4665 23.1141
rtibia 56.5471
rfoot 6.44432 -17.7295
rtoes 4.38191
lfemur -18.3157 -4.81207 -13.8218
ltibia 22.9177
lfoot -3.75188 -2.21439
ltoes -2.23073
616
root -37.0745 17.7637 3.9946 144.666 -81.6464 -143.571
lowerback -0.868397 1.39672 7.33431
upperback -3.77377 1.88688 2.8806
thorax -3.2829 0.708669 -1.15346
lowerneck -17.3088 0.174705 -2.56161
upperneck 22.9139 -0.123577 3.3591
head 10.1716 0.0262572 1.58445
rclavicle -1.09332e-015 -1.82882e-014
rhumerus 43.7897 -30.3318 -55.4632
rradius 87.7861
rwrist -1.04208
rhand -16.8718 -46.7901
rfingers 7.12502
rthumb 9.35904 -436.562
lclavicle -1.09332e-015 -1.82882e-014
lhumerus -16.0885 6.02398 57.9356
lradius 42.4688
lwrist -13.1836
lhand -12.6016 28.3703
lfingers 7.12502
lthumb 13.4772 57.9142
rfemur -10.1199 -4.7545 22.9409
rtibia 57.0912
rfoot 6.51905 -17.9323
rtoes 5.05844
lfemur -17.5749 -5.07065 -14.1785
ltibia 22.7613
lfoot -3.91801 -2.39552
ltoes -1.77778
617
root -37.2217 17.779 3.98929 143.843 -81.9987 -142.86
lowerback -0.91622 1.40113 7.10768
upperback -3.75589 1.88779 2.7578
thorax -3.23828 0.718484 -1.15412
lowerneck -17.3618 0.0661733 -2.62683
upperneck 23.0062 -0.297153 3.49692
head 10.2212 -0.0437265 1.62199
rclavicle 1.0635e-014 -7.95139e-016
rhumerus 42.9708 -29.3322 -54.6233
rradius 87.2871
rwrist -1.17968
rhand -15.7489 -45.7969
rfingers 7.12502
rthumb 10.4424 -435.518
lclavicle 1.0635e-014 -7.95139e-016
lhumerus -16.2444 5.46769 58.6055
lradius 42.5511
lwrist -13.1247
lhand -12.5237 28.0837
lfingers 7.12502
lthumb 13.5523 57.6227
rfemur -10.9574 -5.03873 22.7832
rtibia 57.528
rfoot 6.50481 -18.1508
rtoes 5.69023
lfemur -16.8364 -5.32864 -14.5212
ltibia 22.5703
lfoot -4.11575 -2.54793
ltoes -1.40069
618
root -37.3669 17.7946 3.98357 142.884 -82.3525 -141.995
lowerback -0.962411 1.39978 6.88127
upperback -3.7366 1.88123 2.64095
thorax -3.19393 0.724431 -1.1485
lowerneck -17.4173 -0.0417474 -2.69194
upperneck 23.0829 -0.468002 3.63034
head 10.2661 -0.112555 1.65813
rclavicle -1.3418e-014 -3.57812e-014
rhumerus 42.1023 -28.3614 -53.799
rradius 86.8073
rwrist -1.30847
rhand -14.7125 -44.8082
rfingers 7.12502
rthumb 11.442 -434.476
lclavicle -1.3418e-014 -3.57812e-014
lhumerus -16.4421 4.91198 59.3007
lradius 42.623
lwrist -13.0879
lhand -12.4515 27.8045
lfingers 7.12502
lthumb 13.6219 57.3388
rfemur -11.8087 -5.31642 22.642
rtibia 57.8524
rfoot 6.40679 -18.3816
rtoes 6.27033
lfemur -16.1025 -5.58318 -14.8472
ltibia 22.3444
lfoot -4.33992 -2.68791
ltoes -1.04089
619
root -37.5104 17.8104 3.97746 141.78 -82.7075 -140.966
lowerback -1.0064 1.39312 6.6542
upperback -3.71628 1.8679 2.52889
thorax -3.15047 0.726853 -1.13734
lowerneck -17.4724 -0.149963 -2.75044
upperneck 23.1429 -0.637555 3.75284
head 10.3051 -0.181148 1.68922
rclavicle -4.67144e-015 -1.15295e-014
rhumerus 41.1846 -27.4177 -52.9956
rradius 86.3506
rwrist -1.42453
rhand -13.7811 -43.8367
rfingers 7.12502
rthumb 12.3402 -433.453
lclavicle -4.67144e-015 -1.15295e-014
lhumerus -16.6794 4.36279 60.0195
lradius 42.679
lwrist -13.0768
lhand -12.3818 27.5352
lfingers 7.12502
lthumb 13.6891 57.065
rfemur -12.6666 -5.58675 22.5137
rtibia 58.0579
rfoot 6.22719 -18.6228
rtoes 6.80513
lfemur -15.3732 -5.83196 -15.1588
ltibia 22.086
lfoot -4.5769 -2.82028
ltoes -0.698749
